HIERARCHY
ROOT Hips
{
	OFFSET 0.000000 0.000000 0.000000
	CHANNELS 6 Xposition Yposition Zposition Zrotation Yrotation Xrotation 
	JOINT LeftUpLeg_virtual
	{
		OFFSET 0.000000 0.000000 0.000000
		CHANNELS 3 Zrotation Yrotation Xrotation
		JOINT LeftUpLeg
		{
			OFFSET 10.205400 -3.823500 0.155100
			CHANNELS 3 Zrotation Yrotation Xrotation
			JOINT LeftLeg
			{
				OFFSET 0.708757 -12.982077 0.567790
				CHANNELS 3 Zrotation Yrotation Xrotation
				JOINT LeftFoot
				{
					OFFSET -0.708756 -10.717838 -2.184338
					CHANNELS 3 Zrotation Yrotation Xrotation
					JOINT LeftToeBase
					{
						OFFSET 0.108149 -7.191104 7.560241
						CHANNELS 3 Zrotation Yrotation Xrotation
						End Site
						{
							OFFSET 0.000000 0.000000 0.000000
						}
					}
				}
			}
		}
	}
	JOINT RightUpLeg_virtual
	{
		OFFSET 0.000000 0.000000 0.000000
		CHANNELS 3 Zrotation Yrotation Xrotation
		JOINT RightUpLeg
		{
			OFFSET -10.205400 -3.823500 0.005500
			CHANNELS 3 Zrotation Yrotation Xrotation
			JOINT RightLeg
			{
				OFFSET -0.708756 -12.982134 0.610632
				CHANNELS 3 Zrotation Yrotation Xrotation
				JOINT RightFoot
				{
					OFFSET 0.708754 -10.717769 -1.945823
					CHANNELS 3 Zrotation Yrotation Xrotation
					JOINT RightToeBase
					{
						OFFSET -0.108140 -7.191069 7.372968
						CHANNELS 3 Zrotation Yrotation Xrotation
						End Site
						{
							OFFSET 0.000000 0.000000 0.000000
						}
					}
				}
			}
		}
	}
	JOINT Spine_virtual
	{
		OFFSET 0.000000 0.000000 0.000000
		CHANNELS 3 Zrotation Yrotation Xrotation
		JOINT Spine
		{
			OFFSET 0.000000 6.876099 0.125700
			CHANNELS 3 Zrotation Yrotation Xrotation
			JOINT Spine1
			{
				OFFSET 0.000000 8.022060 0.146608
				CHANNELS 3 Zrotation Yrotation Xrotation
				JOINT Spine2
				{
					OFFSET 0.000000 9.168068 0.167552
					CHANNELS 3 Zrotation Yrotation Xrotation
					JOINT Neck_virtual
					{
						OFFSET 0.000000 0.000000 0.000000
						CHANNELS 3 Zrotation Yrotation Xrotation
						JOINT Neck
						{
							OFFSET 0.000000 10.314075 0.188496
							CHANNELS 3 Zrotation Yrotation Xrotation
							JOINT Head
							{
								OFFSET 0.000000 7.643700 -2.377400
								CHANNELS 3 Zrotation Yrotation Xrotation
								End Site
								{
									OFFSET 0.000000 0.000000 0.000000
								}
							}
						}
					}
					JOINT LeftShoulder_virtual
					{
						OFFSET 0.000000 0.000000 0.000000
						CHANNELS 3 Zrotation Yrotation Xrotation
						JOINT LeftShoulder
						{
							OFFSET 4.392200 8.824978 0.174984
							CHANNELS 3 Zrotation Yrotation Xrotation
							JOINT LeftArm
							{
								OFFSET 8.771219 -2.981674 -0.026999
								CHANNELS 3 Zrotation Yrotation Xrotation
								JOINT LeftForeArm
								{
									OFFSET 8.512804 0.000000 -0.000000
									CHANNELS 3 Zrotation Yrotation Xrotation
									JOINT LeftHand
									{
										OFFSET 18.484802 0.000000 -0.000000
										CHANNELS 3 Zrotation Yrotation Xrotation
										End Site
										{
											OFFSET 0.000000 0.000000 0.000000
										}
									}
								}
							}
						}
					}
					JOINT RightShoulder_virtual
					{
						OFFSET 0.000000 0.000000 0.000000
						CHANNELS 3 Zrotation Yrotation Xrotation
						JOINT RightShoulder
						{
							OFFSET -4.392200 8.824993 0.141379
							CHANNELS 3 Zrotation Yrotation Xrotation
							JOINT RightArm
							{
								OFFSET -8.771282 -2.981682 -0.094208
								CHANNELS 3 Zrotation Yrotation Xrotation
								JOINT RightForeArm
								{
									OFFSET -8.494598 0.000000 0.000000
									CHANNELS 3 Zrotation Yrotation Xrotation
									JOINT RightHand
									{
										OFFSET -18.483803 0.000000 0.000001
										CHANNELS 3 Zrotation Yrotation Xrotation
										End Site
										{
											OFFSET 0.000000 0.000000 0.000000
										}
									}
								}
							}
						}
					}
				}
			}
		}
	}
}
MOTION
Frames: 10
Frame Time: 0.033333
0.770221 36.696545 -13.997660 -179.925993 26.615581 -179.710241 -0.898578 -1.993964 8.643980 0.527178 2.473802 -17.757437 13.072793 5.028136 22.006448 -12.150988 -1.413972 7.122486 0.000000 0.000000 0.000000 4.172522 0.301567 5.650133 2.628972 0.776244 -24.361850 -8.596620 0.132063 23.199736 -0.299811 2.150785 11.379945 0.000000 0.000000 0.000000 2.220928 0.940363 -3.472677 3.227906 3.852873 -7.588074 -0.832142 -2.851532 17.907906 -0.033873 0.057647 0.054547 -0.772980 -1.387241 19.419017 4.378082 -13.362709 22.249744 0.000000 0.000000 0.000000 0.457212 -0.760165 15.536942 -9.820825 -11.833812 3.637804 -51.486516 9.075825 7.208081 -3.400469 -47.102016 11.533972 0.000000 0.000000 0.000000 -3.006192 0.609004 15.064419 19.972262 8.066004 -1.090057 48.743570 1.315221 14.066551 -12.999996 61.915719 -13.410930 0.000000 0.000000 0.000000 
1.202059 36.719749 -14.019003 -179.782177 25.171146 -179.583555 -0.602043 -2.724829 9.187634 1.468201 2.524088 -19.025033 12.550692 4.537776 23.073641 -12.940513 -1.360687 8.229622 0.000000 0.000000 0.000000 4.320183 -0.623224 6.030842 2.687913 1.039062 -23.817604 -7.767452 1.009587 23.218400 -0.724594 2.505792 9.713906 0.000000 0.000000 0.000000 2.652041 0.213739 -3.370612 3.560899 4.194411 -7.098721 -0.709235 -2.975843 17.775154 -0.006836 0.120948 0.044031 -0.748578 -1.343892 19.573388 5.224938 -13.727720 22.544125 0.000000 0.000000 0.000000 0.460328 -0.731499 15.570707 -9.697848 -11.819937 3.852650 -52.531606 10.023951 7.229649 -3.529878 -46.592791 12.049911 0.000000 0.000000 0.000000 -2.951595 0.592385 15.248826 19.670441 7.909502 -0.914349 46.781017 -0.998561 15.653499 -10.473766 57.337539 -10.916227 0.000000 0.000000 0.000000 
1.590521 36.755333 -14.010187 -179.767314 24.192284 -179.564512 -0.479232 -3.622909 9.573526 2.294129 2.490722 -20.740962 12.247038 3.990186 24.485989 -13.156740 -0.883739 10.312374 0.000000 0.000000 0.000000 4.641229 -1.703484 6.136718 2.990915 0.543840 -23.375291 -7.407321 0.500509 22.855379 -1.383282 2.402776 8.862781 0.000000 0.000000 0.000000 2.993348 -0.558027 -3.157645 3.869407 4.549956 -6.643113 -0.553412 -2.917492 17.844998 -0.050038 0.022662 0.003631 -0.514161 -1.350155 19.587186 5.948337 -14.083142 22.889764 0.000000 0.000000 0.000000 0.561343 -0.725664 15.415494 -9.518248 -11.653397 3.986709 -53.538250 11.509191 7.503846 -3.833850 -46.835533 12.668542 0.000000 0.000000 0.000000 -2.764099 0.546079 15.102216 19.148598 7.449634 -0.690953 45.893950 -4.890150 16.878186 -9.109198 54.453430 -9.740861 0.000000 0.000000 0.000000 
1.950758 36.813927 -14.008288 -179.856134 23.654975 -179.660189 -0.385138 -4.406178 9.984254 3.224380 1.793358 -22.419488 12.194037 3.774233 26.010880 -13.355314 -0.497723 12.591109 0.000000 0.000000 0.000000 4.929338 -2.584308 6.177904 3.210818 0.232609 -22.835563 -7.122358 -0.025160 22.450205 -1.776261 2.235108 8.111256 0.000000 0.000000 0.000000 3.249769 -1.133613 -2.760852 4.182072 4.525405 -6.115272 -0.448854 -2.999112 17.549068 -0.086320 0.214064 0.017632 -0.428625 -1.390762 19.612547 6.354410 -14.439606 23.090208 0.000000 0.000000 0.000000 0.576725 -0.715563 15.395595 -9.251910 -11.435238 4.170726 -54.350650 13.355523 7.993945 -4.257946 -47.744395 13.339551 0.000000 0.000000 0.000000 -2.736936 0.617068 15.058083 18.474490 6.651701 -0.456364 46.284797 -9.931355 17.887605 -8.528260 53.325503 -9.449574 0.000000 0.000000 0.000000 
2.278881 36.913189 -14.032148 -179.907046 23.603616 -179.791630 -0.299240 -4.903030 10.284663 4.024634 0.794469 -23.832311 12.102590 3.294896 27.461430 -13.423729 -0.037850 14.938892 0.000000 0.000000 0.000000 5.172513 -3.118013 6.409596 3.404102 0.079772 -22.252418 -6.883243 -0.369973 21.448589 -1.979955 1.946329 8.084360 0.000000 0.000000 0.000000 3.468115 -1.471657 -2.323615 4.513071 4.414628 -5.675704 -0.379593 -2.955742 17.319932 -0.060606 0.069131 0.037609 -0.368383 -1.380054 19.439975 6.487224 -14.613198 23.247020 0.000000 0.000000 0.000000 0.607708 -0.735251 15.229809 -8.898958 -11.169004 4.387823 -55.043152 15.377408 8.849063 -4.509024 -48.995105 13.755009 0.000000 0.000000 0.000000 -2.753868 0.556727 14.850503 17.827784 5.863749 -0.282135 47.604287 -15.686658 18.683417 -8.316354 53.415593 -9.573442 0.000000 0.000000 0.000000 
2.584786 37.034252 -14.078137 -179.916390 24.181349 -179.882813 -0.226233 -4.783572 10.439662 4.583398 -0.188081 -24.815274 12.026187 2.860777 28.771759 -13.246001 0.490294 16.676641 0.000000 0.000000 0.000000 5.399584 -3.086070 6.598654 3.593294 -0.058280 -21.608333 -6.659580 -0.202896 20.432419 -2.078726 1.497353 8.354585 0.000000 0.000000 0.000000 3.707282 -1.454706 -1.855121 4.817397 4.091301 -5.313860 -0.423296 -2.868792 17.076515 0.008666 0.058061 0.049371 -0.453102 -1.509905 19.223586 6.323557 -14.705170 23.319314 0.000000 0.000000 0.000000 0.496654 -0.711755 14.907038 -8.570637 -10.900863 4.573771 -55.482863 17.153510 9.749806 -4.818194 -50.215892 14.106282 0.000000 0.000000 0.000000 -2.815954 0.643971 14.622110 17.165850 5.011376 0.043576 49.518520 -21.685127 19.083841 -8.379779 54.312650 -9.944524 0.000000 0.000000 0.000000 
2.857124 37.158501 -14.125753 -179.930747 25.086704 -179.926717 -0.265699 -4.491772 10.460607 4.872523 -0.792279 -25.294333 12.126255 2.572720 29.970180 -12.567867 1.167890 17.500697 0.000000 0.000000 0.000000 5.634960 -2.717115 6.821231 3.911478 -0.127966 -21.118067 -6.478271 -0.079006 19.328530 -1.977590 1.024731 9.026648 0.000000 0.000000 0.000000 3.867254 -1.177441 -1.426175 5.045859 3.441796 -5.026389 -0.541497 -3.102043 16.823176 -0.058783 0.166821 -0.015664 -0.561726 -1.410098 19.023077 5.667133 -14.512296 23.257945 0.000000 0.000000 0.000000 0.457688 -0.708077 14.691257 -8.217377 -10.695367 4.747895 -55.874772 18.715517 10.959668 -4.823159 -50.939202 14.052254 0.000000 0.000000 0.000000 -3.002639 0.695599 14.446822 16.677713 4.178734 0.423335 51.929491 -27.354091 18.811526 -8.714420 56.002692 -10.497328 0.000000 0.000000 0.000000 
3.088190 37.284088 -14.162995 -179.860396 26.488536 -179.925570 -0.437657 -3.766005 10.358194 4.952329 -1.298106 -25.583146 12.735661 2.969680 30.861954 -10.615236 2.415616 17.325178 0.000000 0.000000 0.000000 5.771895 -2.268569 6.966417 4.349747 -0.175847 -20.723228 -6.537130 0.060130 18.238576 -1.723003 0.541115 9.929582 0.000000 0.000000 0.000000 3.980818 -0.605236 -0.873486 5.184245 2.784786 -4.791523 -0.594508 -3.115256 16.600362 0.043705 0.013725 -0.005036 -0.758202 -1.395055 18.737818 4.676207 -14.247824 22.980282 0.000000 0.000000 0.000000 0.231156 -0.752202 14.555396 -7.918522 -10.796982 4.805795 -56.140699 19.927014 12.449967 -4.379572 -51.157017 13.451824 0.000000 0.000000 0.000000 -3.215181 0.611355 14.231949 16.379560 3.369015 0.868810 54.215863 -32.297270 18.224651 -9.549184 57.956074 -11.450672 0.000000 0.000000 0.000000 
3.291535 37.382809 -14.173517 -179.945500 28.717011 179.996207 -0.522972 -2.587453 10.323478 4.901536 -2.232087 -25.967303 12.853029 3.855660 31.715608 -8.433076 3.481248 16.691364 0.000000 0.000000 0.000000 5.802113 -1.361899 7.143642 4.750744 0.053513 -20.443806 -6.670622 0.153088 17.187604 -1.237119 0.178967 10.872925 0.000000 0.000000 0.000000 3.922960 0.042501 -0.155084 5.124280 1.932809 -4.599587 -0.891406 -3.212727 16.468827 -0.065936 0.199614 -0.001330 -0.925424 -1.426463 18.502397 3.302776 -13.803614 22.590279 0.000000 0.000000 0.000000 0.171898 -0.645889 14.375771 -7.600967 -10.869432 4.829947 -56.417438 20.880380 14.192676 -3.705807 -50.972237 12.454650 0.000000 0.000000 0.000000 -3.278202 0.692690 14.114306 16.375657 2.919416 1.385913 56.276869 -36.137786 17.451468 -10.770603 59.991327 -12.598984 0.000000 0.000000 0.000000 
3.471096 37.438183 -14.152989 -179.944954 31.400838 179.995702 -0.241795 -1.527410 10.570559 4.374961 -3.346763 -26.212108 12.919858 4.376138 31.830587 -7.568593 4.771224 15.303935 0.000000 0.000000 0.000000 5.775579 -0.472384 7.330997 5.192612 0.538956 -20.452645 -6.836254 0.216950 16.186961 -0.534777 -0.039331 12.068203 0.000000 0.000000 0.000000 3.758980 0.897743 0.753694 4.907602 1.176703 -4.453734 -1.083494 -3.164073 16.297371 -0.065583 0.155243 0.031193 -1.126760 -1.374923 18.271748 1.652553 -13.307630 22.065222 0.000000 0.000000 0.000000 0.053856 -0.630116 14.186584 -7.249454 -11.046088 4.877018 -56.723376 21.602799 15.885758 -2.897298 -50.545367 11.384422 0.000000 0.000000 0.000000 -3.410547 0.755559 13.978889 16.897215 2.707632 2.186039 57.983778 -38.823150 16.643083 -11.745624 61.817993 -13.343052 0.000000 0.000000 0.000000 
